<svg width="154" height="31" viewBox="0 0 154 31" fill="none" xmlns="http://www.w3.org/2000/svg">
<g clip-path="url(#clip0_114_1857)">
<path d="M47.8067 17.3021C47.6942 17.3502 47.5816 17.3502 47.4691 17.3502C47.1877 17.3982 46.85 17.3502 46.5405 17.3982C46.4561 17.3982 46.3436 17.3982 46.2591 17.3982C46.231 17.3982 46.2029 17.4463 46.1747 17.4944C46.1466 17.5905 46.1185 17.6866 46.0903 17.7827C46.0622 18.1192 46.034 18.4556 46.0622 18.792L46.034 19.6091C46.034 20.0417 46.034 20.4742 46.0622 20.8587C46.0622 21.099 46.0903 21.2913 46.1466 21.5316C46.231 21.6758 46.5687 21.6758 46.7375 21.6758C46.7656 21.6758 46.8219 21.6758 46.85 21.6758H46.9063L47.1033 21.5796C47.244 21.4835 47.3565 21.4354 47.4972 21.3393L48.0318 20.8587L48.257 20.6184L48.3976 20.3781C48.4821 20.282 48.5383 20.1378 48.6227 20.0897C48.876 19.8494 49.1011 19.6091 49.3262 19.2727C49.4106 19.0804 49.5232 18.8401 49.5794 18.5998C49.6639 18.4075 49.7483 18.1672 49.8045 17.9269C49.8045 17.8308 49.7764 17.8308 49.7201 17.8308C49.1855 17.6385 48.6227 17.5424 48.06 17.4463C47.9756 17.3982 47.9193 17.3021 47.8067 17.3021ZM43.0795 12.1595C43.0514 12.1595 43.0233 12.2075 42.9951 12.2075C42.967 12.3037 42.9107 12.3517 42.8826 12.4479C42.8263 12.592 42.77 12.7362 42.7137 12.8804C42.6575 13.0246 42.6575 13.1688 42.6293 13.313C42.6012 13.4572 42.5449 13.5052 42.5168 13.6013C42.4886 13.6975 42.4324 13.8897 42.4042 14.082C42.3198 14.3703 42.2073 14.6106 42.1228 14.899C42.0947 14.9951 42.0666 15.0913 42.0666 15.1874C42.0384 15.4277 42.0947 15.5719 42.2354 15.5719H42.3479H42.4324H42.4886H42.5731H42.6293H42.7419H42.8826C43.0514 15.5719 43.1921 15.5719 43.3609 15.6199H43.4453L43.5579 15.5719C43.6423 15.5238 43.8111 15.5719 43.9237 15.5719H44.0081H44.0362H44.1206H44.3176H44.3458C44.3739 15.5719 44.402 15.5238 44.402 15.5238C44.4583 15.4277 44.4302 14.9951 44.4302 14.851C44.4302 14.6106 44.4302 14.2742 44.402 14.0339C44.402 13.8417 44.402 13.6494 44.3739 13.4572C44.3458 13.361 44.2895 13.2649 44.2051 13.1688C44.0925 13.0246 43.98 12.9285 43.8674 12.8323L43.4735 12.592C43.3609 12.4479 43.2202 12.3517 43.0795 12.3037M47.5254 12.0634C47.3565 12.2075 47.1877 12.3517 47.0189 12.544C46.7094 12.7843 46.428 13.2168 46.2029 13.6975C46.1466 13.9858 46.0903 14.3223 46.0903 14.6106C46.0903 14.7068 46.034 15.0913 46.0903 15.1874L46.1185 15.2354C46.2029 15.2835 46.2873 15.2835 46.3436 15.2835L46.9063 15.3316C47.047 15.3316 47.1877 15.3796 47.3565 15.4277L48.0881 15.4758L48.3695 15.5238C48.4539 15.4758 48.5665 15.4277 48.6509 15.4277H48.7072C48.7634 15.3796 48.876 15.2835 48.8479 15.1393C48.8197 15.0432 48.7916 14.899 48.7634 14.8029C48.6509 14.4184 48.5102 14.082 48.3414 13.7936L48.0881 13.1207C48.0318 13.0246 47.9756 12.8804 47.9193 12.7843L47.863 12.592C47.8349 12.4479 47.7786 12.3517 47.7223 12.2075C47.6942 12.1595 47.6661 12.1114 47.6098 12.1114M46.4561 9.51607C46.428 9.70832 46.428 9.94863 46.4561 10.1409C46.4561 10.1889 46.4561 10.2851 46.4561 10.3331C46.428 10.5254 46.3998 10.7176 46.3436 10.9099C46.3154 11.006 46.231 11.1021 46.231 11.1982C46.231 11.2944 46.2591 11.2944 46.3154 11.2944C46.4843 11.1021 46.9626 10.8137 46.85 10.3331C46.8219 10.1409 46.7094 10.0448 46.6531 9.90056C46.5968 9.75638 46.5687 9.56413 46.4561 9.51607ZM45.0773 6.96878C44.9367 7.06491 44.8241 7.20909 44.7397 7.40134L44.6271 7.59359L44.5146 7.8339L44.3739 8.07421L44.2613 8.36258L44.1488 8.55483L44.0925 8.79514C43.98 9.08351 43.9237 9.37188 43.8393 9.66025C43.8111 9.75638 43.7548 9.80444 43.7267 9.90056C43.6986 9.99669 43.6704 10.1889 43.6423 10.3331C43.6142 10.4773 43.5016 10.7176 43.5297 10.8618C43.5579 11.006 43.783 11.1021 43.8674 11.1502C44.2613 11.5347 44.6553 11.775 45.1055 11.9192C45.1618 11.9672 45.218 11.9672 45.3024 11.9672H45.3587H45.3869H45.4713H45.5276C45.5838 11.9192 45.6682 11.823 45.6682 11.6789C45.5557 11.5827 45.4431 11.6308 45.3024 11.6308C45.0492 11.6308 44.8522 11.4385 44.6834 11.1021L44.5709 10.9099L44.5146 10.7176C44.402 10.3812 44.3458 9.99669 44.402 9.66025C44.4583 9.51607 44.4864 9.37188 44.5709 9.27576C44.599 9.13157 44.599 8.98739 44.6553 8.8432C44.7678 8.65095 44.9085 8.4587 45.0773 8.36258C45.1336 8.36258 45.1618 8.31452 45.218 8.31452C45.2462 8.26646 45.3024 8.21839 45.3587 8.21839C45.4994 8.17033 45.612 8.21839 45.7527 8.26646C45.8371 8.31452 45.9215 8.36258 46.0059 8.36258C45.8933 7.93002 45.3024 6.96878 45.0773 6.96878ZM44.796 3.36413C44.6271 3.46025 44.402 3.36413 44.2332 3.41219L44.0362 3.55638C43.8955 3.6525 43.7267 3.74863 43.586 3.74863L43.3046 3.84475H43.1921L43.0795 3.98894C43.0233 4.08506 42.967 4.13312 42.9107 4.18118C42.77 4.27731 42.6293 4.37343 42.4886 4.51762L42.2354 4.85405C42.1791 4.90211 42.1228 4.95018 42.0666 4.99824L41.8133 5.33467C41.6445 5.57498 41.4757 5.76723 41.3068 6.00754C41.1943 6.19979 41.1099 6.39204 41.0255 6.53622L40.9129 6.68041C40.8285 6.77653 40.7441 6.92072 40.6878 7.06491C40.5752 7.25715 40.4908 7.49746 40.4346 7.73777C40.4064 7.93002 40.3501 8.12227 40.2939 8.26646C40.2094 8.41064 40.0969 8.55483 39.9843 8.65095C39.9281 8.69901 39.8436 8.74708 39.7874 8.8432C39.6185 9.08351 39.6185 9.56413 39.4779 9.8525C39.3372 10.1409 39.1402 10.3812 39.0276 10.6696C38.9995 10.7657 38.9432 10.8618 38.9151 11.006C38.7744 11.6308 38.69 12.3037 38.6618 12.9765C38.6337 13.2168 38.6337 13.4572 38.6056 13.6975C38.6056 13.7936 38.6056 13.8897 38.6337 13.9858C38.6337 14.4184 38.6618 14.851 38.7463 15.2835C38.7744 15.6199 38.8307 15.9564 38.9151 16.2448C38.9995 16.5331 39.1121 16.8215 39.2246 17.0618C39.309 17.2541 39.3653 17.4944 39.4497 17.6866C39.506 17.7827 39.5623 17.8789 39.6185 17.975C39.7592 18.2634 39.8718 18.5037 40.0406 18.744C40.2939 19.1285 40.5752 19.513 40.8848 19.8013C41.0817 20.0417 41.2787 20.2339 41.4757 20.3781C41.757 20.5703 42.0666 20.7626 42.3479 20.9068L42.77 21.051C43.1639 21.1951 43.5579 21.2913 43.9518 21.2913C44.0362 21.2432 44.0925 21.2432 44.1769 21.2432H44.2051H44.2613C44.3458 21.1471 44.402 21.1951 44.4583 21.051C44.5146 20.9068 44.4864 20.8106 44.5146 20.7145C44.5146 20.1858 44.5146 19.6091 44.5146 19.0804C44.5146 18.6959 44.5146 18.3595 44.4864 18.023C44.4864 17.8308 44.4864 17.6866 44.4583 17.4944C44.4583 17.4463 44.4302 17.4463 44.4302 17.3982C44.2051 17.3502 43.98 17.3502 43.7549 17.3982H43.586C43.5297 17.3502 43.4453 17.3502 43.3891 17.3021C43.2484 17.3021 43.1077 17.3502 42.967 17.3982C42.8544 17.3982 42.7419 17.3021 42.6012 17.3502C42.5168 17.3502 42.4042 17.3982 42.3198 17.4463C42.2073 17.5424 42.1228 17.6385 42.0103 17.6866C41.7289 17.8308 41.3912 17.6866 41.1661 17.3502C41.0817 17.206 40.9973 17.0618 40.941 16.8696L40.8003 16.5331C40.7441 16.3409 40.7722 16.1006 40.8285 15.9083C40.8566 15.8122 40.9129 15.7641 40.941 15.668C40.9973 15.5238 41.0536 15.3796 41.1099 15.2354C41.1943 15.0913 41.3068 14.899 41.4194 14.7068C41.4757 14.5145 41.5319 14.2742 41.5882 14.082C41.6445 13.9858 41.6726 13.8417 41.7289 13.7455C41.757 13.6013 41.757 13.4572 41.7852 13.313C41.8415 13.1207 41.9259 12.9285 41.9821 12.7362C42.0384 12.544 42.0666 12.3998 42.0947 12.2075C42.1791 12.0153 42.2354 11.823 42.2635 11.6308C42.2917 11.5347 42.2917 11.4866 42.2635 11.3905C42.2354 11.3424 42.2073 11.2944 42.1791 11.2463C42.0947 11.1502 41.954 11.1021 41.8696 11.006C41.6445 10.7657 41.4757 10.4773 41.3631 10.0928C41.335 10.0448 41.3068 9.94863 41.3068 9.8525C41.335 9.70832 41.3631 9.61219 41.4194 9.51607C41.5038 9.32382 41.6445 9.2277 41.757 9.17963H41.8133C42.1228 8.98739 42.6012 10.1889 42.77 9.90056C42.8544 9.80444 42.8826 9.56413 42.9107 9.41994L43.1358 8.74708L43.2765 8.26646C43.3891 7.93002 43.5016 7.59359 43.6142 7.30522L43.7267 7.06491C43.783 6.96878 43.783 6.77653 43.8393 6.68041C43.9237 6.4401 44.0362 6.24785 44.1206 6.0556C44.1488 5.95948 44.1488 5.86336 44.1769 5.81529L44.2332 5.67111C44.2613 5.57498 44.3176 5.47886 44.3458 5.33467L44.4864 4.6618C44.5146 4.46956 44.5709 4.27731 44.6271 4.08506C44.6834 3.89281 44.8241 3.74863 44.8804 3.55638C44.9367 3.36413 44.8804 3.41219 44.796 3.36413ZM46.5124 3.41219C46.428 3.46025 46.1747 3.60444 46.2029 3.79669V3.84475L46.4561 4.42149C46.5405 4.61374 46.5687 4.80599 46.6249 4.95018C46.6812 5.14243 46.7375 5.19049 46.7656 5.28661L47.0189 6.10367C47.1033 6.34398 47.2158 6.53622 47.3003 6.77653L47.6379 7.73777C47.6661 7.8339 47.7505 7.93002 47.7786 7.97808C47.8912 8.26646 47.9474 8.60289 48.1163 8.79514C48.1725 8.8432 48.2288 8.89126 48.2851 8.89126C48.3414 8.89126 48.4258 8.79514 48.4539 8.74708L48.5665 8.65095C48.7353 8.4587 48.9885 7.97808 49.1855 7.97808H49.2418C49.5513 7.78584 49.889 8.69901 49.8327 9.13157C49.8046 9.27576 49.7483 9.37188 49.692 9.41994C49.495 9.66025 49.2699 9.90056 49.0448 10.1409C48.9604 10.1889 48.9041 10.2851 48.876 10.4292C48.8479 10.4773 48.8479 10.5734 48.8479 10.6215C48.876 10.8137 48.9323 10.9579 48.9885 11.1021C49.073 11.3905 49.1574 11.6789 49.2418 11.9672L49.4106 12.3517C49.495 12.544 49.5794 12.7843 49.6639 12.9765C49.7483 13.1688 49.8046 13.361 49.889 13.5052C50.0859 13.9858 50.2266 14.5626 50.4236 15.0913L50.5361 15.3316C50.5643 15.4277 50.6206 15.5238 50.6487 15.6199C50.6768 15.7161 50.7331 15.7641 50.7894 15.7161C50.8457 15.668 50.8457 15.5719 50.8738 15.5238C50.9019 15.3796 50.9582 15.2354 50.9864 15.0913C51.0145 14.851 51.0426 14.6587 51.0708 14.4665C51.127 13.9858 51.1833 13.5052 51.2115 13.0246C51.2115 12.7362 51.2115 12.4959 51.2115 12.2075C51.2115 11.9192 51.2677 11.5827 51.2677 11.2463C51.2677 11.0541 51.2396 10.8137 51.1833 10.6215C51.1833 10.4773 51.1552 10.3331 51.1552 10.1889C51.127 10.0928 51.127 9.99669 51.0989 9.90056C51.0426 9.66025 51.0145 9.37188 50.9582 9.13157C50.8175 8.65095 50.6768 8.21839 50.508 7.78584C50.4799 7.73777 50.4799 7.64165 50.4517 7.54553C50.4236 7.4494 50.4236 7.4494 50.4236 7.35328L50.3392 7.20909L50.1985 6.92072L49.8608 6.15173C49.7764 6.00754 49.692 5.91142 49.6076 5.76723C49.5232 5.62304 49.495 5.52692 49.4388 5.4308C49.2699 5.14243 49.1011 4.90211 48.9041 4.70987L48.679 4.42149L47.6379 3.84475C47.5816 3.79669 47.5535 3.79669 47.5254 3.70056L47.3847 3.60444C47.1033 3.50832 46.8219 3.41219 46.5124 3.41219ZM45.1055 0.192038H45.3869C45.4994 0.2401 45.6401 0.288162 45.7527 0.336224C45.9496 0.336224 46.1466 0.336224 46.3436 0.384286L46.4842 0.48041L46.7375 0.576534L46.9063 0.672658C47.0751 0.768782 47.3003 0.72072 47.4691 0.816844C47.6098 0.912968 47.6942 1.10522 47.8067 1.15328C48.0037 1.2494 48.2288 1.2494 48.4258 1.39359C48.5102 1.48971 48.5946 1.53777 48.6509 1.6339L48.9604 1.87421C49.0448 1.97033 49.1292 2.06646 49.2136 2.16258C49.3543 2.30677 49.495 2.45095 49.6357 2.59514C49.7483 2.78739 49.8608 2.97963 49.9734 3.17188L50.311 3.70056C50.4236 3.89281 50.508 4.13312 50.6206 4.32537C50.7894 4.61374 50.9582 4.95018 51.0989 5.28661C51.2115 5.52692 51.2396 5.81529 51.3521 6.0556C51.4647 6.29591 51.5773 6.53622 51.6898 6.77653C51.7179 6.87266 51.7742 6.96878 51.8024 7.06491C51.8586 7.20909 51.9149 7.35328 51.9712 7.49746C52.0556 7.78584 52.14 8.07421 52.2244 8.36258C52.3088 8.60289 52.3933 8.89126 52.4777 9.17963C52.5621 9.75638 52.6184 10.3331 52.6465 10.9099C52.6746 11.1502 52.7028 11.3424 52.7028 11.5827C52.7028 11.775 52.6746 12.0153 52.6465 12.2075C52.6465 12.3037 52.6184 12.3998 52.6184 12.4479C52.6184 12.4959 52.6184 12.6882 52.6184 12.7843C52.5902 13.0727 52.5902 13.361 52.5621 13.6494C52.5621 13.7455 52.5621 13.8897 52.5621 13.9858L52.5339 14.1781C52.5058 14.3223 52.5058 14.4665 52.5058 14.6106C52.5058 14.9471 52.4777 15.2835 52.4495 15.6199C52.3933 15.8603 52.3088 16.1006 52.2244 16.3409C52.1963 16.5331 52.1682 16.6773 52.1119 16.8696C52.0837 17.0137 52.0275 17.206 51.9712 17.3502C51.943 17.4944 51.9149 17.5905 51.8586 17.7347C51.8305 17.7827 51.8024 17.8308 51.7742 17.8789L51.6898 17.975C51.6617 18.0711 51.6617 18.1672 51.6335 18.2153C51.5773 18.4075 51.521 18.5517 51.4647 18.6959C51.2959 19.0323 51.127 19.3688 50.9301 19.6572C50.8738 19.8013 50.7894 19.9455 50.7612 20.0897L50.6768 20.3781C50.5361 20.5703 50.3673 20.8106 50.2266 21.0029L50.0578 21.1471C49.9452 21.2913 49.889 21.5316 49.7483 21.7238C49.5513 21.9641 49.3262 22.1564 49.1292 22.3006C49.0167 22.4448 48.9041 22.5889 48.7634 22.7331C48.5102 22.8773 48.257 22.9734 48.0037 23.0215L47.8067 23.1176L47.6942 23.2137C47.6098 23.2137 47.4972 23.2137 47.3847 23.2137C47.2721 23.2618 47.1314 23.3099 47.0189 23.3579L46.7938 23.4541L46.6249 23.5021L46.5124 23.5982C46.4561 23.6463 46.3717 23.6463 46.3154 23.6944C46.0622 23.8866 45.7527 24.0308 45.4713 24.1269C45.2743 24.1269 45.0773 24.0789 44.9085 23.9827C44.796 23.8866 44.6553 23.8385 44.5427 23.7905H44.1488L44.0081 23.7424C43.7267 23.6944 43.4735 23.6463 43.1921 23.5982C43.1077 23.5502 43.0514 23.5021 42.9951 23.4541C42.8826 23.3579 42.7982 23.3099 42.6856 23.2618C42.4324 23.1176 42.151 23.0215 41.8977 22.8292C41.757 22.7331 41.6164 22.5889 41.4757 22.4928C41.1661 22.2044 40.8285 21.9161 40.5471 21.5796C40.4064 21.3874 40.2657 21.1951 40.0969 21.0029L39.8437 20.7626C39.5904 20.4742 39.3372 20.1378 39.1402 19.7533C38.9432 19.3688 38.8307 18.9362 38.6337 18.5517C38.4367 18.1672 38.2961 17.9269 38.1554 17.5905C38.0991 17.4463 38.0709 17.2541 38.0147 17.1099C37.9584 16.9657 37.9021 16.8696 37.874 16.7734C37.7896 16.4851 37.7614 16.1967 37.7052 15.9083C37.677 15.7641 37.5926 15.668 37.5645 15.5238C37.5363 15.3796 37.5363 15.3316 37.5363 15.2354C37.48 15.0432 37.4519 14.8029 37.4238 14.6106C37.4238 14.4184 37.4238 14.2742 37.3956 14.082V13.7936C37.3956 13.6013 37.3394 13.4091 37.3394 13.2168C37.3394 12.9765 37.3394 12.7362 37.3394 12.4959C37.3394 12.3037 37.3394 12.0634 37.3394 11.8711C37.3394 11.6789 37.3956 11.3905 37.4238 11.1502C37.4519 11.0541 37.4519 11.006 37.48 10.9099C37.5082 10.8137 37.48 10.6696 37.48 10.5254C37.48 10.3331 37.5082 10.1889 37.5363 9.99669C37.5926 9.66025 37.677 9.37188 37.7333 9.08351C37.7614 8.93932 37.7896 8.8432 37.8177 8.69901C37.8458 8.60289 37.874 8.50677 37.9021 8.41064C37.9303 8.26646 37.9303 8.07421 37.9303 7.88196C37.9303 7.8339 37.9584 7.73777 37.9584 7.68971C37.9584 7.64165 37.9584 7.49746 37.9584 7.40134C38.0147 7.11297 38.0709 6.87266 38.1272 6.63235C38.1554 6.4401 38.1554 6.29591 38.1272 6.10367C38.1272 5.81529 38.1554 5.57498 38.2398 5.33467C38.2961 5.23855 38.3242 5.14243 38.4086 5.0463C38.4367 4.99824 38.4649 4.95018 38.4649 4.85405C38.4649 4.75793 38.5493 4.75793 38.6056 4.6618C38.69 4.56568 38.7744 4.46956 38.8588 4.37343C39.0276 4.27731 39.1683 4.18118 39.309 4.037C39.3934 3.89281 39.4497 3.70056 39.5623 3.55638C39.6185 3.46025 39.703 3.36413 39.7874 3.31607L39.9562 3.17188L40.2376 2.73932C40.4346 2.49901 40.6315 2.2587 40.8285 2.06646C40.8848 2.01839 40.9692 1.87421 41.0536 1.87421C41.1661 1.77808 41.2787 1.73002 41.3631 1.6339C41.5601 1.44165 41.7289 1.2494 41.9259 1.05715C42.0103 1.00909 42.0947 0.96103 42.1791 0.912968L42.5731 0.672658C42.7137 0.576534 42.8263 0.384286 42.967 0.384286C43.0233 0.336224 43.0514 0.336224 43.1077 0.336224C43.1639 0.288162 43.2202 0.288162 43.2765 0.288162H43.3328L43.4453 0.2401L43.5297 0.192038H43.586L43.8111 0.0959136C43.8393 0.0959136 43.8955 0.0478516 43.9237 0.0478516C43.9518 0.0478516 44.0081 0.0478516 44.0362 0.0478516H44.1206H44.1769H44.2895C44.3176 0.0478516 44.3176 0.0478516 44.3458 0.0478516C44.402 0.0478516 44.5146 0.143976 44.5709 0.143976H44.7397H44.7678H44.8522H44.9085C44.9648 0.0959136 45.0211 0.0959136 45.0773 0.0959136H45.1055H45.1336" fill="#019EDF"/>
<path d="M42.0103 30.6632C42.7137 28.885 44.8803 27.0586 47.0188 27.0586C49.1573 27.0586 51.4365 29.0772 52.3651 28.0198C52.3651 28.0198 51.4365 29.3656 49.5513 29.3656C47.666 29.3656 46.9626 27.7795 45.6682 27.7795C44.3739 27.7795 42.9951 29.5098 42.4042 30.9997L42.0103 30.6632Z" fill="#019EDF"/>
<path d="M48.707 26.7704C49.101 26.3378 49.4386 25.7611 49.6637 25.0401C50.1702 23.4541 50.8737 22.1084 51.6897 21.0029C51.6897 21.0029 50.733 26.0494 49.72 26.2898C49.72 26.2898 49.5512 26.4339 49.8326 26.3859C50.1139 26.3378 51.3802 25.5208 51.8304 25.4246C52.2806 25.3285 53.378 24.896 53.6875 24.4153C53.9407 24.0308 54.1096 24.0789 54.1096 24.0789C54.1096 24.0789 52.8715 27.4432 50.6767 27.4432C50.0014 27.2991 49.3542 27.1068 48.707 26.7704Z" fill="#019EDF"/>
<path d="M51.324 25.0883C51.4928 24.6077 51.5772 24.0309 51.6054 23.5022C51.6616 22.4929 52.0274 20.186 53.0685 17.6387C53.0685 17.6387 53.2374 21.6278 52.0274 24.079C52.0274 24.079 51.943 24.4635 52.1118 24.1751C52.8716 22.7813 53.7157 21.5798 54.6724 20.5705C54.6724 20.5705 55.5166 19.417 55.5728 19.0325C55.5447 18.9844 54.8975 24.6557 51.324 25.0883Z" fill="#019EDF"/>
<path d="M53.3781 21.2433C53.4343 20.8588 53.4625 20.4743 53.4625 20.0417C53.4625 19.5131 53.3218 17.6386 53.3218 16.8216C53.3218 16.0045 53.3781 14.4665 53.772 13.4092C53.772 13.8417 53.8001 14.3224 53.8845 14.7549C54.0252 15.4758 54.1096 16.2448 54.1378 17.0138C54.1378 17.8309 54.0534 18.5999 53.8845 19.3689C54.0252 19.1766 54.1378 18.9363 54.2222 18.6479C54.5599 17.6867 54.9819 16.8216 55.4603 16.0526C55.8261 15.5239 56.0793 14.803 56.2481 14.034C56.3044 15.3797 56.0512 16.7255 55.5728 17.8309C54.7568 19.8014 54.4192 19.465 53.969 20.234C53.9408 20.282 53.4343 21.2914 53.3781 21.2433Z" fill="#019EDF"/>
<path d="M54.6724 16.822C54.6724 16.2933 54.6162 15.8127 54.5036 15.3321C53.9408 13.698 53.7157 11.7755 53.8002 9.90106C53.8002 9.90106 53.9127 9.70881 54.166 10.8142C54.4192 11.9197 54.7287 12.2561 54.8413 13.3615C54.8975 13.8902 54.9257 14.4189 54.9538 14.9476C54.9538 14.9476 55.0382 15.0918 55.0382 14.9476C55.0945 13.9383 55.2352 12.929 55.4884 11.9677C55.8542 10.622 56.3607 9.32431 56.3045 8.41113C56.3045 8.41113 56.5296 8.41113 56.5014 9.90106C56.4733 11.391 56.22 13.8902 54.6724 16.822Z" fill="#019EDF"/>
<path d="M55.0662 12.3035C54.9537 11.8229 54.7848 11.3423 54.616 10.9578C54.4191 10.6213 53.1528 7.4973 53.0403 6.10351C53.0403 6.10351 53.1528 6.00738 53.2654 6.34382C53.5186 6.92056 53.8 7.40118 54.1095 7.8818C54.2221 8.02599 54.8693 9.17948 54.9255 10.4291C54.9255 10.4291 54.9818 10.5733 54.8693 8.50661C54.7567 6.43994 55.2632 5.0942 54.8411 3.65234C54.8411 3.65234 55.432 3.79653 55.7697 8.02599C55.7134 9.17948 55.5727 10.2849 55.2913 11.3423C55.2913 11.3903 55.1225 12.3516 55.0662 12.3035Z" fill="#019EDF"/>
<path d="M54.616 7.68983C54.3628 7.25727 54.0532 6.82471 53.7437 6.48828C53.3498 6.10378 52.1398 4.13324 51.9429 2.59526C51.9429 2.59526 52.0273 2.40301 52.3931 3.26812C52.7026 3.89293 52.984 3.60456 53.8844 5.43092C53.8844 5.43092 53.997 5.86347 54.0814 5.81541C54.1658 5.76735 54.0532 5.38285 54.0532 5.38285C53.9688 4.85417 53.9125 4.32549 53.8563 3.79681C53.7437 2.7875 53.5749 1.82626 53.3498 0.913086C53.3498 0.913086 54.5316 2.06657 54.7285 5.23867C54.7004 6.05572 54.6723 6.87278 54.616 7.68983Z" fill="#019EDF"/>
<path d="M53.575 4.2771C53.575 4.2771 53.6594 1.4895 51.4365 0.0957031C51.4365 0.0957031 52.1963 2.69105 52.7872 3.31586C53.0685 3.60423 53.3218 3.8926 53.575 4.2771Z" fill="#019EDF"/>
<path d="M47.9193 30.6632C47.2158 28.885 45.0492 27.0586 42.9107 27.0586C40.7722 27.0586 38.493 29.0772 37.5645 28.0198C37.5645 28.0198 38.493 29.3656 40.3783 29.3656C42.2635 29.3656 42.967 27.7795 44.2613 27.7795C45.5557 27.7795 46.9345 29.5098 47.5254 30.9997L47.9193 30.6632Z" fill="#019EDF"/>
<path d="M41.2223 26.7704C40.8284 26.3378 40.4908 25.7611 40.2657 25.0401C39.7592 23.4541 39.0557 22.1084 38.2397 21.0029C38.2397 21.0029 39.1964 26.0494 40.2094 26.2898C40.2094 26.2898 40.3782 26.4339 40.0968 26.3859C39.8154 26.3378 38.5492 25.5208 38.099 25.4246C37.6488 25.3285 36.5514 24.896 36.2419 24.4153C35.9887 24.0308 35.8198 24.0789 35.8198 24.0789C35.8198 24.0789 37.0579 27.4432 39.2527 27.4432C39.928 27.2991 40.5752 27.1068 41.2223 26.7704Z" fill="#019EDF"/>
<path d="M38.6055 25.0883C38.4367 24.6077 38.3522 24.0309 38.3241 23.5022C38.2678 22.4929 37.902 20.186 36.8609 17.6387C36.8609 17.6387 36.6921 21.6278 37.902 24.079C37.902 24.079 37.9864 24.4635 37.8176 24.1751C37.0579 22.7813 36.2137 21.5798 35.2852 20.5705C35.2852 20.5705 34.441 19.417 34.3848 19.0325C34.3848 19.0325 35.0601 24.6557 38.6055 25.0883Z" fill="#019EDF"/>
<path d="M36.5515 21.2433C36.4953 20.8588 36.4671 20.4743 36.4671 20.0417C36.4671 19.5131 36.6078 17.6386 36.6078 16.8216C36.6078 16.0045 36.5515 14.4665 36.1857 13.4092C36.1857 13.8417 36.1576 14.3224 36.0732 14.7549C35.9325 15.4758 35.8481 16.2448 35.8199 17.0138C35.8199 17.8309 35.9044 18.5999 36.0732 19.3689C35.9325 19.1766 35.8199 18.9363 35.7637 18.6479C35.426 17.6867 35.0039 16.8216 34.5256 16.0526C34.1598 15.5239 33.9065 14.803 33.7377 14.034C33.6814 15.3797 33.9347 16.7255 34.413 17.8309C35.229 19.8014 35.5667 19.465 36.0169 20.234C35.9888 20.282 36.4953 21.2914 36.5515 21.2433Z" fill="#019EDF"/>
<path d="M35.2572 16.822C35.2572 16.2933 35.3135 15.8127 35.426 15.3321C35.9888 13.698 36.242 11.7755 36.1295 9.90106C36.1295 9.90106 36.0169 9.70881 35.7637 10.8142C35.5104 11.9197 35.2009 12.2561 35.0884 13.3615C35.0321 13.8902 35.004 14.4189 34.9758 14.9476C34.9758 14.9476 34.8914 15.0918 34.8914 14.9476C34.8351 13.9383 34.6944 12.929 34.4412 11.9677C34.0754 10.622 33.5689 9.32431 33.6252 8.41113C33.6252 8.41113 33.4001 8.41113 33.4282 9.90106C33.4564 11.391 33.7377 13.8902 35.2572 16.822Z" fill="#019EDF"/>
<path d="M34.8631 12.3035C34.9757 11.8229 35.1445 11.3423 35.3133 10.9578C35.5103 10.6213 36.7765 7.4973 36.8891 6.10351C36.8891 6.10351 36.7765 6.00738 36.664 6.34382C36.4107 6.92056 36.1293 7.40118 35.8198 7.8818C35.7073 8.02599 35.0601 9.17948 35.0038 10.4291C35.0038 10.4291 34.9475 10.5733 35.0601 8.50661C35.1726 6.43994 34.6662 5.0942 35.0882 3.65234C35.0882 3.65234 34.4692 3.79653 34.1597 8.02599C34.2159 9.17948 34.3566 10.2849 34.638 11.3423C34.638 11.3903 34.8068 12.3516 34.8631 12.3035Z" fill="#019EDF"/>
<path d="M35.3416 7.68983C35.5948 7.25727 35.9043 6.82471 36.2138 6.48828C36.6078 6.10378 37.8177 4.13324 38.0428 2.59526C38.0428 2.59526 37.9584 2.40301 37.5645 3.26812C37.255 3.89293 36.9736 3.60456 36.0731 5.43092C36.0731 5.43092 35.9606 5.86347 35.8762 5.81541C35.7918 5.76735 35.9043 5.38285 35.9043 5.38285C35.9887 4.85417 36.045 4.32549 36.1013 3.79681C36.2138 2.7875 36.3827 1.82626 36.6078 0.913086C36.6078 0.913086 35.426 2.06657 35.229 5.23867C35.229 6.05572 35.2571 6.87278 35.3416 7.68983Z" fill="#019EDF"/>
<path d="M36.3544 4.2771C36.3544 4.2771 36.27 1.4895 38.4648 0.0957031C38.4648 0.0957031 37.7051 2.69105 37.1423 3.31586C36.8609 3.60423 36.6077 3.94066 36.3544 4.2771Z" fill="#019EDF"/>
<path d="M0 0.0957031H3.51727V16.629C3.51727 21.5314 4.47396 24.7035 7.14709 24.7035C9.82021 24.7035 10.7769 21.4833 10.7769 16.629V0.0957031H14.2942V18.4073C14.2942 26.0973 11.6492 29.2213 7.14709 29.2213C2.64498 29.2213 0 26.0492 0 18.3593V0.0957031Z" fill="#019EDF"/>
<path d="M16.7703 0H21.0754L27.7441 21.8682H27.8004V0H31.1488V29.2698H26.8719L20.175 7.35349H20.1468V29.2698H16.7703V0Z" fill="#019EDF"/>
<path d="M58.7244 0H62.2416V11.8233H69.248V0H72.7372V29.2698H69.248V16.4372H62.2416V29.2698H58.7244V0Z" fill="#019EDF"/>
<path d="M83.0357 5.86357H83.0076L80.4752 17.9271H85.5963L83.0357 5.86357ZM81.1223 0H85.0898L91.9555 29.2698H88.0725L86.5812 22.5411H79.4903L77.9709 29.2698H74.3411L81.1223 0Z" fill="#019EDF"/>
<path d="M97.1891 24.6558H98.8492C100.481 24.6558 102.451 23.9829 102.451 20.5705C102.451 16.7736 100.594 16.1488 98.8492 16.1488H97.1891V24.6558ZM97.1891 11.8233H98.6241C100.087 11.8233 101.916 11.2946 101.916 8.26667C101.916 4.85426 100.144 4.61395 98.5397 4.61395H97.1891V11.8233ZM93.7 0H99.8059C102.057 0 105.434 1.10543 105.434 7.49767C105.434 10.9581 104.027 13.4093 101.944 14.0341V14.1302C104.336 14.5147 105.94 17.2062 105.94 20.8109C105.94 28.1643 101.973 29.2698 99.7778 29.2698H93.7V0Z" fill="#019EDF"/>
<path d="M111.708 0H108.191V29.2698H111.708V0Z" fill="#019EDF"/>
<path d="M118.63 4.61395H113.622V0H127.128V4.61395H122.12V29.2698H118.63V4.61395Z" fill="#019EDF"/>
<path d="M133.797 5.86357H133.741L131.208 17.9271H136.329L133.797 5.86357ZM131.883 0H135.851L142.717 29.2698H138.834L137.314 22.5411H130.223L128.704 29.2698H125.074L131.883 0Z" fill="#019EDF"/>
<path d="M145.502 4.61395H140.494V0H154V4.61395H148.991V29.2698H145.502V4.61395Z" fill="#019EDF"/>
</g>
<defs>
<clipPath id="clip0_114_1857">
<rect width="154" height="31" fill="white"/>
</clipPath>
</defs>
</svg>
