<svg width="65" height="62" viewBox="0 0 65 62" fill="none" xmlns="http://www.w3.org/2000/svg">
<g clip-path="url(#clip0_148_1342)">
<path d="M40.0592 34.2296C39.7457 34.3249 39.4322 34.3249 39.1187 34.3249C38.3348 34.4203 37.3943 34.3249 36.5321 34.4203C36.2969 34.4203 35.9834 34.4203 35.7483 34.4203C35.6699 34.4203 35.5915 34.5156 35.5131 34.611C35.4348 34.8017 35.3564 34.9924 35.278 35.1831C35.1996 35.8505 35.1212 36.5179 35.1996 37.1854L35.1212 38.8063C35.1212 39.6644 35.1212 40.5225 35.1996 41.2853C35.1996 41.762 35.278 42.1434 35.4348 42.6201C35.6699 42.9062 36.6105 42.9062 37.0808 42.9062C37.1591 42.9062 37.3159 42.9062 37.3943 42.9062H37.551L38.0997 42.7155C38.4916 42.5248 38.8051 42.4294 39.197 42.2387L40.6863 41.2853L41.3133 40.8085L41.7052 40.3318C41.9403 40.1411 42.0971 39.8551 42.3323 39.7597C43.0377 39.283 43.6647 38.8063 44.2918 38.1388C44.5269 37.7574 44.8404 37.2807 44.9972 36.804C45.2323 36.4226 45.4675 35.9459 45.6242 35.4691C45.6242 35.2784 45.5459 35.2784 45.3891 35.2784C43.8999 34.897 42.3323 34.7063 40.7647 34.5156C40.5295 34.4203 40.3727 34.2296 40.0592 34.2296ZM26.8913 24.0275C26.8129 24.0275 26.7345 24.1228 26.6561 24.1228C26.5778 24.3135 26.421 24.4088 26.3426 24.5995C26.1858 24.8856 26.0291 25.1716 25.8723 25.4577C25.7156 25.7437 25.7155 26.0298 25.6372 26.3158C25.5588 26.6018 25.402 26.6972 25.3237 26.8879C25.2453 27.0786 25.0885 27.46 25.0101 27.8414C24.775 28.4134 24.4615 28.8902 24.2263 29.4622C24.1479 29.6529 24.0696 29.8436 24.0696 30.0343C23.9912 30.5111 24.1479 30.7971 24.5398 30.7971H24.8534H25.0885H25.2453H25.4804H25.6372H25.9507H26.3426C26.8129 30.7971 27.2048 30.7971 27.6751 30.8924H27.9102L28.2237 30.7971C28.4589 30.7017 28.9292 30.7971 29.2427 30.7971H29.4778H29.5562H29.7914H30.34H30.4184C30.4968 30.7971 30.5752 30.7018 30.5752 30.7018C30.7319 30.5111 30.6535 29.6529 30.6535 29.3669C30.6535 28.8901 30.6535 28.2227 30.5752 27.746C30.5752 27.3646 30.5752 26.9832 30.4968 26.6018C30.4184 26.4111 30.2616 26.2204 30.0265 26.0297C29.713 25.7437 29.3994 25.553 29.0859 25.3623L27.9886 24.8856C27.6751 24.5995 27.2832 24.4088 26.8913 24.3135M39.2754 23.8368C38.8051 24.1228 38.3348 24.4088 37.8646 24.7902C37.0024 25.267 36.2186 26.1251 35.5915 27.0786C35.4348 27.6506 35.278 28.3181 35.278 28.8901C35.278 29.0808 35.1212 29.8436 35.278 30.0343L35.3564 30.1297C35.5915 30.225 35.8267 30.225 35.9834 30.225L37.551 30.3204C37.9429 30.3204 38.3349 30.4157 38.8051 30.5111L40.843 30.6064L41.6268 30.7018C41.862 30.6064 42.1755 30.5111 42.4106 30.5111H42.5674C42.7242 30.4157 43.0377 30.225 42.9593 29.939C42.8809 29.7483 42.8026 29.4623 42.7242 29.2716C42.4106 28.5088 42.0187 27.8413 41.5485 27.2693L40.843 25.9344C40.6863 25.7437 40.5295 25.4577 40.3727 25.267L40.216 24.8856C40.1376 24.5995 39.9808 24.4088 39.8241 24.1228C39.7457 24.0274 39.6673 23.9321 39.5106 23.9321M36.2969 18.7834C36.2186 19.1648 36.2186 19.6415 36.2969 20.0229C36.2969 20.1182 36.2969 20.3089 36.2969 20.4043C36.2186 20.7857 36.1402 21.1671 35.9834 21.5484C35.905 21.7391 35.6699 21.9298 35.6699 22.1205C35.6699 22.3112 35.7483 22.3112 35.905 22.3112C36.3753 21.9298 37.7078 21.3577 37.3943 20.4043C37.3159 20.0229 37.0024 19.8322 36.8456 19.5461C36.6889 19.2601 36.6105 18.8787 36.2969 18.7834ZM32.4563 13.73C32.0644 13.9207 31.7509 14.2067 31.5157 14.5881L31.2022 14.9695L30.8887 15.4462L30.4968 15.923L30.1833 16.495L29.8697 16.8764L29.713 17.3532C29.3995 17.9253 29.2427 18.4973 29.0076 19.0694C28.9292 19.2601 28.7724 19.3555 28.694 19.5461C28.6156 19.7368 28.5373 20.1182 28.4589 20.4043C28.3805 20.6903 28.067 21.167 28.1454 21.4531C28.2237 21.7391 28.8508 21.9298 29.0859 22.0252C30.1832 22.788 31.2806 23.2647 32.5347 23.5507C32.6914 23.6461 32.8482 23.6461 33.0833 23.6461H33.2401H33.3185H33.5536H33.7104C33.8672 23.5507 34.1023 23.36 34.1023 23.074C33.7888 22.8833 33.4752 22.9786 33.0833 22.9786C32.3779 22.9786 31.8293 22.5973 31.359 21.9298L31.0454 21.5484L30.8887 21.1671C30.5752 20.4996 30.4184 19.7368 30.5752 19.0694C30.7319 18.7834 30.8103 18.4973 31.0454 18.3066C31.1238 18.0206 31.1238 17.7345 31.2806 17.4485C31.5941 17.0671 31.986 16.6857 32.4563 16.495C32.6131 16.495 32.6914 16.3997 32.8482 16.3997C32.9266 16.3044 33.0833 16.209 33.2401 16.209C33.632 16.1137 33.9455 16.209 34.3374 16.3044C34.5726 16.3997 34.8077 16.495 35.0428 16.495C34.7293 15.6369 33.0833 13.73 32.4563 13.73ZM31.6725 6.57894C31.2022 6.76963 30.5752 6.57895 30.1049 6.67429L29.5562 6.96032C29.1643 7.15102 28.694 7.34173 28.3021 7.34173L27.5183 7.53241H27.2048L26.8913 7.81847C26.7345 8.00916 26.5777 8.10451 26.421 8.19985C26.0291 8.39055 25.6372 8.58122 25.2453 8.86726L24.5398 9.53471C24.3831 9.63005 24.2263 9.72539 24.0696 9.82073L23.3641 10.4882C22.8938 10.9649 22.4236 11.3463 21.9533 11.823C21.6398 12.2044 21.4046 12.5858 21.1695 12.8719L20.8559 13.1579C20.6208 13.3486 20.3857 13.6346 20.2289 13.9207C19.9154 14.3021 19.6802 14.7788 19.5235 15.2555C19.4451 15.6369 19.2883 16.0183 19.1316 16.3044C18.8964 16.5904 18.5829 16.8764 18.2694 17.0671C18.1126 17.1625 17.8775 17.2578 17.7207 17.4485C17.2504 17.9252 17.2505 18.8787 16.8585 19.4508C16.4666 20.0229 15.918 20.4996 15.6045 21.0717C15.5261 21.2624 15.3693 21.4531 15.2909 21.7391C14.899 22.9786 14.6639 24.3135 14.5855 25.6484C14.5071 26.1251 14.5071 26.6018 14.4287 27.0786C14.4287 27.2693 14.4287 27.46 14.5071 27.6506C14.5071 28.5088 14.5855 29.3669 14.8206 30.225C14.899 30.8925 15.0558 31.5599 15.2909 32.132C15.5261 32.7041 15.8396 33.2761 16.1531 33.7528C16.3882 34.1342 16.545 34.611 16.7802 34.9924C16.9369 35.1831 17.0937 35.3737 17.2505 35.5644C17.6424 36.1365 17.9559 36.6133 18.4262 37.09C19.1316 37.8528 19.9154 38.6156 20.7776 39.1876C21.3262 39.6644 21.8749 40.0457 22.4236 40.3318C23.2074 40.7132 24.0696 41.0946 24.8534 41.3806L26.0291 41.6667C27.1264 41.9527 28.2237 42.1434 29.3211 42.1434C29.5562 42.0481 29.713 42.0481 29.9481 42.0481H30.0265H30.1833C30.4184 41.8574 30.5752 41.9527 30.7319 41.6667C30.8887 41.3806 30.8103 41.1899 30.8887 40.9992C30.8887 39.9504 30.8887 38.8063 30.8887 37.7574C30.8887 36.9947 30.8887 36.3272 30.8103 35.6598C30.8103 35.2784 30.8103 34.9924 30.7319 34.611C30.7319 34.5156 30.6535 34.5156 30.6535 34.4203C30.0265 34.3249 29.3994 34.3249 28.7724 34.4203H28.3021C28.1453 34.3249 27.9102 34.3249 27.7535 34.2296C27.3616 34.2296 26.9697 34.3249 26.5777 34.4203C26.2642 34.4203 25.9507 34.2296 25.5588 34.3249C25.3236 34.3249 25.0101 34.4203 24.775 34.5156C24.4615 34.7063 24.2263 34.897 23.9128 34.9924C23.129 35.2784 22.1884 34.9924 21.5614 34.3249C21.3262 34.0389 21.0911 33.7529 20.9343 33.3715L20.5424 32.704C20.3857 32.3226 20.464 31.8459 20.6208 31.4645C20.6992 31.2738 20.8559 31.1785 20.9343 30.9878C21.0911 30.7018 21.2479 30.4157 21.4046 30.1297C21.6398 29.8436 21.9533 29.4622 22.2668 29.0809C22.4236 28.6995 22.5803 28.2227 22.7371 27.8414C22.8939 27.6507 22.9722 27.3646 23.129 27.1739C23.2074 26.8879 23.2074 26.6018 23.2857 26.3158C23.4425 25.9344 23.6777 25.553 23.8344 25.1716C23.9912 24.7902 24.0696 24.5042 24.1479 24.1228C24.3831 23.7414 24.5398 23.36 24.6182 22.9786C24.6966 22.788 24.6966 22.6926 24.6182 22.5019C24.5398 22.4066 24.4615 22.3112 24.3831 22.2159C24.1479 22.0252 23.756 21.9298 23.5209 21.7391C22.8939 21.2624 22.4236 20.6903 22.11 19.9275C22.0317 19.8322 21.9533 19.6415 21.9533 19.4508C22.0317 19.1648 22.11 18.9741 22.2668 18.7834C22.502 18.402 22.8938 18.2113 23.2074 18.1159H23.3641C24.2263 17.7346 25.5588 20.1182 26.0291 19.5461C26.2642 19.3555 26.3426 18.8787 26.421 18.5927L27.048 17.2578L27.4399 16.3044C27.7535 15.6369 28.067 14.9695 28.3805 14.3974L28.694 13.9207C28.8508 13.73 28.8508 13.3486 29.0076 13.1579C29.2427 12.6811 29.5562 12.2998 29.7914 11.9184C29.8697 11.7277 29.8697 11.537 29.9481 11.4416L30.1049 11.1556C30.1833 10.9649 30.34 10.7742 30.4184 10.4882L30.8103 9.15332C30.8887 8.77193 31.0454 8.39053 31.2022 8.00915C31.359 7.62776 31.7509 7.34171 31.9076 6.96032C32.0644 6.57894 31.9076 6.67429 31.6725 6.57894ZM36.4537 6.67429C36.2186 6.76964 35.5131 7.05567 35.5915 7.43706V7.53241L36.2969 8.67659C36.5321 9.05798 36.6105 9.43937 36.7672 9.72541C36.924 10.1068 37.0808 10.2021 37.1591 10.3928L37.8646 12.0137C38.0997 12.4905 38.4132 12.8719 38.6484 13.3486L39.5889 15.2555C39.6673 15.4462 39.9025 15.6369 39.9808 15.7323C40.2944 16.3043 40.4511 16.9718 40.9214 17.3532C41.0782 17.4485 41.2349 17.5439 41.3917 17.5439C41.5485 17.5439 41.7836 17.3532 41.862 17.2578L42.1755 17.0671C42.6458 16.6857 43.3512 15.7323 43.8999 15.7323H44.0566C44.9188 15.3509 45.8594 17.1625 45.7026 18.0206C45.6242 18.3066 45.4675 18.4973 45.3107 18.5927C44.7621 19.0694 44.135 19.5461 43.508 20.0229C43.2728 20.1182 43.1161 20.3089 43.0377 20.595C42.9593 20.6903 42.9593 20.881 42.9593 20.9764C43.0377 21.3577 43.1944 21.6438 43.3512 21.9298C43.5863 22.5019 43.8215 23.074 44.0566 23.6461L44.5269 24.4089C44.7621 24.7902 44.9972 25.267 45.2323 25.6484C45.4675 26.0297 45.6243 26.4111 45.8594 26.6972C46.4081 27.6506 46.8 28.7948 47.3486 29.8436L47.6621 30.3204C47.7405 30.511 47.8973 30.7017 47.9757 30.8924C48.054 31.0831 48.2108 31.1785 48.3676 31.0831C48.5243 30.9878 48.5243 30.7971 48.6027 30.7018C48.6811 30.4157 48.8379 30.1297 48.9162 29.8436C48.9946 29.3669 49.073 28.9855 49.1514 28.6041C49.3081 27.6506 49.4649 26.6972 49.5433 25.7437C49.5433 25.1716 49.5433 24.6949 49.5433 24.1228C49.5433 23.5507 49.7 22.8833 49.7 22.2159C49.7 21.8345 49.6217 21.3577 49.4649 20.9764C49.4649 20.6903 49.3865 20.4043 49.3865 20.1182C49.3081 19.9275 49.3081 19.7368 49.2298 19.5461C49.073 19.0694 48.9946 18.4973 48.8379 18.0206C48.4459 17.0671 48.054 16.209 47.5838 15.3509C47.5054 15.2555 47.5054 15.0648 47.427 14.8741C47.3486 14.6835 47.3486 14.6835 47.3486 14.4928L47.1135 14.2067L46.7216 13.6346L45.781 12.1091C45.5459 11.823 45.3107 11.6323 45.0756 11.3463C44.8404 11.0603 44.7621 10.8696 44.6053 10.6789C44.135 10.1068 43.6647 9.63006 43.1161 9.24868L42.489 8.67659L39.5889 7.53241C39.4322 7.43706 39.3538 7.43708 39.2754 7.24638L38.8835 7.05568C38.0997 6.86498 37.3159 6.67429 36.4537 6.67429ZM32.5347 0.28603H33.3185C33.632 0.381377 34.0239 0.476741 34.3374 0.572088C34.8861 0.572088 35.4348 0.572094 35.9834 0.667441L36.3753 0.858118L37.0808 1.04882L37.551 1.2395C38.0213 1.43019 38.6484 1.33486 39.1187 1.52556C39.5106 1.71625 39.7457 2.09762 40.0592 2.19297C40.6079 2.38366 41.2349 2.38366 41.7836 2.66971C42.0187 2.8604 42.2539 2.95575 42.4106 3.14644L43.2728 3.62318C43.508 3.81387 43.7431 4.00457 43.9782 4.19526C44.3701 4.48131 44.762 4.76734 45.1539 5.05338C45.4675 5.43477 45.781 5.81617 46.0945 6.19756L47.0351 7.24638C47.3486 7.62777 47.5838 8.10449 47.8973 8.48588C48.3676 9.05796 48.8379 9.72539 49.2298 10.3928C49.5433 10.8696 49.6217 11.4416 49.9352 11.9184C50.2487 12.3951 50.5622 12.8719 50.8758 13.3486C50.9541 13.5393 51.1109 13.73 51.1893 13.9207C51.346 14.2067 51.5028 14.4928 51.6596 14.7788C51.8947 15.3509 52.1298 15.9229 52.365 16.495C52.6001 16.9718 52.8353 17.5439 53.0704 18.1159C53.3055 19.2601 53.4623 20.4043 53.5407 21.5484C53.6191 22.0252 53.6975 22.4066 53.6975 22.8833C53.6975 23.2647 53.6191 23.7414 53.5407 24.1228C53.5407 24.3135 53.4623 24.5042 53.4623 24.5995C53.4623 24.6949 53.4623 25.0763 53.4623 25.267C53.3839 25.8391 53.3839 26.4111 53.3056 26.9832C53.3056 27.1739 53.3056 27.46 53.3056 27.6506L53.2272 28.032C53.1488 28.3181 53.1488 28.6041 53.1488 28.8901C53.1488 29.5576 53.0704 30.225 52.992 30.8924C52.8353 31.3692 52.6001 31.8459 52.365 32.3226C52.2866 32.704 52.2082 32.9901 52.0515 33.3715C51.9731 33.6575 51.8163 34.0389 51.6596 34.3249C51.5812 34.611 51.5028 34.8017 51.346 35.0877C51.2677 35.1831 51.1893 35.2784 51.1109 35.3738L50.8758 35.5644C50.7974 35.7551 50.7974 35.9458 50.719 36.0412C50.5622 36.4226 50.4055 36.7086 50.2487 36.9946C49.7784 37.6621 49.3081 38.3295 48.7595 38.9016C48.6027 39.1876 48.3676 39.4737 48.2892 39.7597L48.054 40.3318C47.6621 40.7132 47.1919 41.1899 46.7999 41.5713L46.3297 41.8573C46.0161 42.1434 45.8594 42.6201 45.4675 43.0015C44.9188 43.4783 44.2918 43.8596 43.7431 44.1457C43.4296 44.4317 43.1161 44.7178 42.7242 45.0038C42.0187 45.2899 41.3133 45.4805 40.6079 45.5759L40.0592 45.7666L39.7457 45.9573C39.5105 45.9573 39.197 45.9573 38.8835 45.9573C38.57 46.0526 38.1781 46.148 37.8646 46.2433L37.2375 46.434L36.7672 46.5294L36.4537 46.7201C36.297 46.8154 36.0618 46.8154 35.905 46.9108C35.1996 47.2921 34.3374 47.5782 33.5536 47.7689C33.005 47.7689 32.4563 47.6735 31.986 47.4828C31.6725 47.2921 31.2806 47.1968 30.9671 47.1014H29.8697L29.4778 47.0061C28.694 46.9107 27.9886 46.8154 27.2048 46.7201C26.9696 46.6247 26.8129 46.5294 26.6561 46.434C26.3426 46.2433 26.1075 46.148 25.7939 46.0526C25.0885 45.7666 24.3047 45.5759 23.5993 45.1945C23.2074 45.0038 22.8155 44.7178 22.4236 44.5271C21.5614 43.955 20.6208 43.3829 19.837 42.7155C19.4451 42.3341 19.0532 41.9527 18.5829 41.5713L17.8775 41.0946C17.1721 40.5225 16.4666 39.8551 15.918 39.0923C15.3693 38.3295 15.0558 37.4714 14.5071 36.7086C13.9585 35.9458 13.5665 35.4691 13.1746 34.8017C13.0179 34.5156 12.9395 34.1342 12.7827 33.8482C12.626 33.5622 12.4692 33.3715 12.3908 33.1808C12.1557 32.6087 12.0773 32.0366 11.9206 31.4645C11.8422 31.1785 11.607 30.9878 11.5286 30.7018C11.4503 30.4157 11.4503 30.3204 11.4503 30.1297C11.2935 29.7483 11.2151 29.2715 11.1367 28.8901C11.1367 28.5088 11.1367 28.2227 11.0584 27.8414V27.2693C11.0584 26.8879 10.9016 26.5065 10.9016 26.1251C10.9016 25.6484 10.9016 25.1716 10.9016 24.6949C10.9016 24.3135 10.9016 23.8368 10.9016 23.4554C10.9016 23.074 11.0584 22.5019 11.1367 22.0252C11.2151 21.8345 11.2151 21.7391 11.2935 21.5484C11.3719 21.3577 11.2935 21.0717 11.2935 20.7856C11.2935 20.4043 11.3719 20.1182 11.4503 19.7369C11.607 19.0694 11.8422 18.4973 11.9989 17.9252C12.0773 17.6392 12.1557 17.4485 12.2341 17.1625C12.3124 16.9718 12.3908 16.7811 12.4692 16.5904C12.5476 16.3043 12.5476 15.9229 12.5476 15.5416C12.5476 15.4462 12.626 15.2555 12.626 15.1602C12.626 15.0648 12.626 14.7788 12.626 14.5881C12.7827 14.016 12.9395 13.5393 13.0963 13.0626C13.1746 12.6812 13.1746 12.3951 13.0963 12.0137C13.0963 11.4417 13.1746 10.9649 13.4098 10.4882C13.5665 10.2975 13.6449 10.1068 13.8801 9.91609C13.9584 9.82074 14.0368 9.7254 14.0368 9.53471C14.0368 9.34401 14.272 9.34402 14.4287 9.15332C14.6639 8.96263 14.899 8.77193 15.1342 8.58123C15.6044 8.39054 15.9964 8.19983 16.3883 7.91379C16.6234 7.62775 16.7802 7.24636 17.0937 6.96032C17.2504 6.76963 17.4856 6.57894 17.7207 6.48359L18.191 6.19756L18.9748 5.33944C19.5235 4.86271 20.0721 4.38598 20.6208 4.00459C20.7776 3.90924 21.0127 3.62318 21.2478 3.62318C21.5614 3.43248 21.8749 3.33714 22.11 3.14644C22.6587 2.76505 23.129 2.38368 23.6777 2.00229C23.9128 1.90695 24.1479 1.81158 24.3831 1.71624L25.4804 1.2395C25.8723 1.04881 26.1858 0.667441 26.5777 0.667441C26.7345 0.572094 26.8129 0.572088 26.9697 0.572088C27.1264 0.476741 27.2832 0.476735 27.4399 0.476735H27.5967L27.9102 0.381382L28.1454 0.28603H28.3021L28.9292 0.0953529C29.0075 0.0953529 29.1643 0 29.2427 0C29.3211 0 29.4778 0 29.5562 0H29.7914H29.9481H30.2616C30.34 0 30.34 0 30.4184 0C30.5752 0 30.8887 0.190706 31.0454 0.190706H31.5157H31.5941H31.8292H31.986C32.1428 0.0953587 32.2995 0.0953529 32.4563 0.0953529H32.5347H32.613" fill="#019EDF"/>
<path d="M23.9128 60.736C25.8724 57.2081 31.9077 53.585 37.8646 53.585C43.8215 53.585 50.1704 57.5895 52.7569 55.4919C52.7569 55.4919 50.1704 58.1616 44.9189 58.1616C39.6673 58.1616 37.7078 55.0152 34.1023 55.0152C30.4968 55.0152 26.6562 58.4476 25.0102 61.4034L23.9128 60.736Z" fill="#019EDF"/>
<path d="M42.5674 53.0129C43.6647 52.1548 44.6053 51.0106 45.2323 49.5804C46.6432 46.434 48.6027 43.7643 50.8757 41.5713C50.8757 41.5713 48.2108 51.5827 45.3891 52.0595C45.3891 52.0595 44.9188 52.3455 45.7026 52.2501C46.4864 52.1548 50.0136 50.5339 51.2676 50.3432C52.5217 50.1525 55.5786 49.2944 56.4408 48.3409C57.1462 47.5782 57.6165 47.6735 57.6165 47.6735C57.6165 47.6735 54.1677 54.3478 48.054 54.3478C46.1729 54.0617 44.3701 53.6804 42.5674 53.0129Z" fill="#019EDF"/>
<path d="M49.8569 49.6763C50.3272 48.7228 50.5624 47.5786 50.6407 46.5298C50.7975 44.5275 51.8165 39.9509 54.7165 34.8975C54.7165 34.8975 55.1868 42.8113 51.8165 47.674C51.8165 47.674 51.5813 48.4367 52.0516 47.8647C54.1679 45.0996 56.5193 42.7159 59.1842 40.7136C59.1842 40.7136 61.5357 38.4253 61.6924 37.6625C61.614 37.5672 59.8113 48.8181 49.8569 49.6763Z" fill="#019EDF"/>
<path d="M55.5786 42.0484C55.7354 41.2856 55.8138 40.5229 55.8138 39.6647C55.8138 38.6159 55.4219 34.8974 55.4219 33.2765C55.4219 31.6556 55.5786 28.6045 56.676 26.5068C56.676 27.365 56.7543 28.3184 56.9895 29.1766C57.3814 30.6068 57.6165 32.1323 57.6949 33.6579C57.6949 35.2788 57.4598 36.8043 56.9895 38.3299C57.3814 37.9485 57.6949 37.4718 57.9301 36.8997C58.8706 34.9927 60.0463 33.2765 61.3788 31.7509C62.3977 30.7021 63.1032 29.2719 63.5735 27.7464C63.7302 30.4161 63.0248 33.0858 61.6923 35.2788C59.4193 39.188 58.4787 38.5206 57.2246 40.0461C57.1463 40.1415 55.7354 42.1438 55.5786 42.0484Z" fill="#019EDF"/>
<path d="M59.1842 33.2766C59.1842 32.2277 59.0275 31.2743 58.714 30.3208C57.1463 27.079 56.5193 23.2651 56.7544 19.5466C56.7544 19.5466 57.068 19.1652 57.7734 21.3582C58.4788 23.5512 59.341 24.2186 59.6545 26.4116C59.8113 27.4604 59.8897 28.5092 59.968 29.558C59.968 29.558 60.2032 29.8441 60.2032 29.558C60.3599 27.5557 60.7519 25.5534 61.4573 23.6465C62.4762 20.9768 63.8871 18.4024 63.7303 16.5908C63.7303 16.5908 64.3573 16.5908 64.279 19.5466C64.2006 22.5023 63.4952 27.4604 59.1842 33.2766Z" fill="#019EDF"/>
<path d="M60.2816 24.3138C59.9681 23.3604 59.4978 22.4069 59.0275 21.6441C58.4788 20.9767 54.9517 14.7791 54.6382 12.0141C54.6382 12.0141 54.9517 11.8234 55.2652 12.4908C55.9707 13.635 56.7545 14.5884 57.6167 15.5419C57.9302 15.8279 59.7329 18.1163 59.8897 20.5953C59.8897 20.5953 60.0465 20.8813 59.7329 16.7814C59.4194 12.6815 60.8303 10.0118 59.6546 7.15137C59.6546 7.15137 61.3006 7.43741 62.2411 15.828C62.0844 18.1163 61.6924 20.3093 60.9086 22.4069C60.9086 22.5022 60.4384 24.4092 60.2816 24.3138Z" fill="#019EDF"/>
<path d="M59.0274 15.1598C58.322 14.3016 57.4598 13.4435 56.5977 12.7761C55.5003 12.0133 52.13 8.10407 51.5813 5.05297C51.5813 5.05297 51.8164 4.6716 52.8354 6.38785C53.6976 7.62736 54.4814 7.05528 56.9896 10.6785C56.9896 10.6785 57.3031 11.5366 57.5382 11.4412C57.7734 11.3459 57.4598 10.5831 57.4598 10.5831C57.2247 9.5343 57.0679 8.48546 56.9112 7.43664C56.5977 5.43436 56.1274 3.52741 55.5003 1.71582C55.5003 1.71582 58.7923 4.00415 59.341 10.2971C59.2626 11.918 59.1842 13.5389 59.0274 15.1598Z" fill="#019EDF"/>
<path d="M56.1273 8.39088C56.1273 8.39088 56.3625 2.86077 50.1704 0.0957031C50.1704 0.0957031 52.2867 5.24443 53.9327 6.48394C54.7165 7.05602 55.4219 7.6281 56.1273 8.39088Z" fill="#019EDF"/>
<path d="M40.3729 60.736C38.4134 57.2081 32.3781 53.585 26.4211 53.585C20.4642 53.585 14.1154 57.5895 11.5288 55.4919C11.5288 55.4919 14.1154 58.1616 19.3669 58.1616C24.6184 58.1616 26.5779 55.0152 30.1834 55.0152C33.7889 55.0152 37.6296 58.4476 39.2756 61.4034L40.3729 60.736Z" fill="#019EDF"/>
<path d="M21.7183 53.0129C20.6209 52.1548 19.6804 51.0106 19.0533 49.5804C17.6425 46.434 15.6829 43.7643 13.4099 41.5713C13.4099 41.5713 16.0749 51.5827 18.8966 52.0595C18.8966 52.0595 19.3668 52.3455 18.583 52.2501C17.7992 52.1548 14.2721 50.5339 13.018 50.3432C11.7639 50.1525 8.70709 49.2944 7.8449 48.3409C7.13947 47.5782 6.66919 47.6735 6.66919 47.6735C6.66919 47.6735 10.1179 54.3478 16.2316 54.3478C18.1128 54.0617 19.9155 53.6804 21.7183 53.0129Z" fill="#019EDF"/>
<path d="M14.4287 49.6763C13.9584 48.7228 13.7233 47.5786 13.6449 46.5298C13.4882 44.5275 12.4692 39.9509 9.56912 34.8975C9.56912 34.8975 9.09885 42.8113 12.4692 47.674C12.4692 47.674 12.7043 48.4367 12.2341 47.8647C10.1178 45.0996 7.76636 42.7159 5.1798 40.7136C5.1798 40.7136 2.82839 38.4253 2.67163 37.6625C2.67163 37.6625 4.55277 48.8181 14.4287 49.6763Z" fill="#019EDF"/>
<path d="M8.70703 42.0484C8.55027 41.2856 8.4719 40.5229 8.4719 39.6647C8.4719 38.6159 8.86381 34.8974 8.86381 33.2765C8.86381 31.6556 8.70704 28.6045 7.6881 26.5068C7.6881 27.365 7.60972 28.3184 7.37458 29.1766C6.98267 30.6068 6.74754 32.1323 6.66916 33.6579C6.66916 35.2788 6.90429 36.8043 7.37458 38.3299C6.98267 37.9485 6.66915 37.4718 6.51239 36.8997C5.57182 34.9927 4.39611 33.2765 3.06364 31.7509C2.04469 30.7021 1.33925 29.2719 0.868968 27.7464C0.712207 30.4161 1.41765 33.0858 2.75012 35.2788C5.02316 39.188 5.96372 38.5206 7.21781 40.0461C7.13943 40.1415 8.55027 42.1438 8.70703 42.0484Z" fill="#019EDF"/>
<path d="M5.10152 33.2766C5.10152 32.2277 5.25827 31.2743 5.57179 30.3208C7.1394 27.079 7.84483 23.2651 7.53131 19.5466C7.53131 19.5466 7.21779 19.1652 6.51237 21.3582C5.80694 23.5512 4.94476 24.2186 4.63124 26.4116C4.47447 27.4604 4.3961 28.5092 4.31772 29.558C4.31772 29.558 4.08256 29.8441 4.08256 29.558C3.9258 27.5557 3.53389 25.5534 2.82847 23.6465C1.80952 20.9768 0.39867 18.4024 0.555431 16.5908C0.555431 16.5908 -0.0716002 16.5908 0.00678048 19.5466C0.0851612 22.5023 0.868968 27.4604 5.10152 33.2766Z" fill="#019EDF"/>
<path d="M4.00419 24.3138C4.31772 23.3604 4.78801 22.4069 5.25829 21.6441C5.80695 20.9767 9.33409 14.7791 9.64761 12.0141C9.64761 12.0141 9.3341 11.8234 9.02058 12.4908C8.31515 13.635 7.53134 14.5884 6.66916 15.5419C6.35563 15.8279 4.55286 18.1163 4.3961 20.5953C4.3961 20.5953 4.23935 20.8813 4.55287 16.7814C4.86639 12.6815 3.45554 10.0118 4.63125 7.15137C4.63125 7.15137 2.90687 7.43741 2.04468 15.828C2.20144 18.1163 2.59335 20.3093 3.37716 22.4069C3.37716 22.5022 3.84743 24.4092 4.00419 24.3138Z" fill="#019EDF"/>
<path d="M5.33671 15.1598C6.04214 14.3016 6.90433 13.4435 7.76652 12.7761C8.86385 12.0133 12.2342 8.10407 12.8613 5.05297C12.8613 5.05297 12.6261 4.6716 11.5288 6.38785C10.6666 7.62736 9.88279 7.05528 7.37461 10.6785C7.37461 10.6785 7.06108 11.5366 6.82594 11.4412C6.5908 11.3459 6.90432 10.5831 6.90432 10.5831C7.13947 9.5343 7.29624 8.48546 7.453 7.43664C7.76652 5.43436 8.2368 3.52741 8.86384 1.71582C8.86384 1.71582 5.57186 4.00415 5.02319 10.2971C5.02319 11.918 5.10157 13.5389 5.33671 15.1598Z" fill="#019EDF"/>
<path d="M8.15843 8.39088C8.15843 8.39088 7.92328 2.86077 14.037 0.0957031C14.037 0.0957031 11.9207 5.24443 10.3531 6.48394C9.56927 7.05602 8.86385 7.72345 8.15843 8.39088Z" fill="#019EDF"/>
</g>
<defs>
<clipPath id="clip0_148_1342">
<rect width="64.2857" height="61.4035" fill="white"/>
</clipPath>
</defs>
</svg>
